<?xml version="1.0" standalone="no" ?>
<svg viewBox="0 0 200 200" xmlns="http://www.w3.org/2000/svg">
  <path
    fill="#9EF0F0"
    d="M17.7,-26.5C26.8,-25.4,40.7,-28.4,45,-24.7C49.4,-21,44.2,-10.5,36.3,-4.6C28.4,1.4,17.8,2.8,19.4,16.7C20.9,30.6,34.5,57,33.3,58.6C32.1,60.1,16,36.9,0.4,36.2C-15.2,35.5,-30.4,57.2,-31.2,55.4C-32,53.5,-18.4,28.2,-26.9,15C-35.5,1.9,-66.1,0.9,-71.1,-2.9C-76.1,-6.7,-55.4,-13.3,-40.4,-15.3C-25.4,-17.4,-16.2,-14.7,-10.4,-17.8C-4.7,-20.8,-2.3,-29.5,1,-31.2C4.3,-32.9,8.6,-27.6,17.7,-26.5Z"
    transform="translate(100 100)"
  />
</svg>
